<svg xmlns="http://www.w3.org/2000/svg" width="46.75" height="48.346" viewBox="0 0 46.75 48.346">
  <g id="Ask_Doubt" transform="translate(-1.625 -0.625)">
    <g id="XMLID_2695_" transform="translate(2.5 1.5)">
      <g id="XMLID_2696_">
        <path id="XMLID_2704_" d="M31.526,30.984H12.648a5.169,5.169,0,0,1-5.148-5.2V6.7a5.169,5.169,0,0,1,5.148-5.2H31.526a5.169,5.169,0,0,1,5.148,5.2V25.781A5.169,5.169,0,0,1,31.526,30.984Z" transform="translate(0.172 -1.5)" fill="none" stroke="#000" stroke-linecap="round" stroke-linejoin="round" stroke-width="1.75"/>
        <path id="XMLID_2703_" d="M42.5,5.521h0a4.774,4.774,0,0,1,5,4.512V32.59a4.774,4.774,0,0,1-5,4.512H36.667l-5.833,6.015V37.1H7.5a4.774,4.774,0,0,1-5-4.512V10.033a4.774,4.774,0,0,1,5-4.512h0" transform="translate(-2.5 3.479)" fill="none" stroke="#000" stroke-linecap="round" stroke-linejoin="round" stroke-width="1.75"/>
        <path id="XMLID_2702_" d="M17.836,18.508v-.94A4.468,4.468,0,0,1,20,13.738h0a4.468,4.468,0,0,0,2.168-3.83V9.836A4.335,4.335,0,0,0,17.836,5.5h0A4.335,4.335,0,0,0,13.5,9.836h0" transform="translate(4.423 1.438)" fill="none" stroke="#000" stroke-linecap="round" stroke-linejoin="round" stroke-width="1.75"/>
        <line id="XMLID_2700_" y1="0.231" transform="translate(22.259 23.029)" fill="#fff" stroke="#000" stroke-linecap="round" stroke-linejoin="round" stroke-width="1.75"/>
        <line id="XMLID_2699_" x1="0.173" transform="translate(27.566 35.181)" fill="none" stroke="#000" stroke-linecap="round" stroke-linejoin="round" stroke-width="1.75"/>
        <line id="XMLID_2698_" x1="0.173" transform="translate(23.258 35.181)" fill="none" stroke="#000" stroke-linecap="round" stroke-linejoin="round" stroke-width="1.75"/>
        <line id="XMLID_2697_" x1="0.173" transform="translate(18.951 35.181)" fill="none" stroke="#000" stroke-linecap="round" stroke-linejoin="round" stroke-width="1.75"/>
      </g>
    </g>
  </g>
</svg>
