<svg xmlns="http://www.w3.org/2000/svg" width="47.88" height="48.193" viewBox="0 0 47.88 48.193">
  <g id="Setting" transform="translate(-1665.125 -27.776)">
    <g id="Ellipse_3" data-name="Ellipse 3" transform="translate(1679 42)" fill="none" stroke="#000" stroke-width="1.75">
      <circle cx="10" cy="10" r="10" stroke="none"/>
      <circle cx="10" cy="10" r="9.125" fill="none"/>
    </g>
    <g id="Path_12" data-name="Path 12" transform="translate(1670 33)" fill="none">
      <path d="M16.019-5.224H22.2S24.374.767,24.473.795a15.838,15.838,0,0,1,4.273,1.738c.093.093,4.923-2.787,4.923-2.787l4.645,4.6s-2.6,5.434-2.6,5.507a15.152,15.152,0,0,1,1.764,4.015c-.035.029,5.531,2.183,5.531,2.183l-.325,6.27s-5.109,1.811-5.206,1.951a17.742,17.742,0,0,1-1.287,4.167c-.062.031,2.406,5.438,2.406,5.438l-5.062,4.469s-4.906-2.781-5.062-2.656A14.043,14.043,0,0,1,24,37.563c-.078.034-2.125,5.406-2.125,5.406H16.156S14.063,37.156,14,37.188c-.75-.281-3.219-1.219-4.25-1.781-.062-.062-5.594,2.375-5.594,2.375l-4.25-4.219s2.25-5.094,2.219-5.156A40.583,40.583,0,0,1,.281,24.063c.034-.015-5.156-1.875-5.156-1.875V16.469S.533,13.894.563,13.844A24.42,24.42,0,0,1,2.125,9.25c.063.063-2.219-4.937-2.219-4.937L4.156.188S9.626,2.642,9.75,2.5A18.523,18.523,0,0,1,13.688.438C13.717.5,16.019-5.224,16.019-5.224Z" stroke="none"/>
      <path d="M 17.20051383972168 -3.474048614501953 C 16.9974193572998 -2.971225738525391 16.7462272644043 -2.350589752197266 16.49516677856445 -1.733497619628906 C 16.15898704528809 -0.907196044921875 15.88840675354004 -0.2478561401367188 15.69096565246582 0.2262039184570312 C 15.56948661804199 0.5178642272949219 15.47703742980957 0.7362709045410156 15.4083366394043 0.8939208984375 C 15.28750038146973 1.171199798583984 14.95273017883301 1.939250946044922 14.11379814147949 2.13970947265625 C 13.08523368835449 2.488624572753906 12.25096893310547 3.0103759765625 11.44328689575195 3.515522003173828 C 11.17236137390137 3.684955596923828 10.91606712341309 3.845249176025391 10.65280723571777 3.99932861328125 C 10.37760925292969 4.165454864501953 10.05803489685059 4.255950927734375 9.72703742980957 4.255950927734375 C 9.354093551635742 4.255950927734375 9.000621795654297 4.256065368652344 4.524726867675781 2.268611907958984 L 2.009941101074219 4.709434509277344 C 2.192619323730469 5.111118316650391 2.405811309814453 5.580493927001953 2.617607116699219 6.048122406005859 C 2.942577362060547 6.765623092651367 3.200965881347656 7.3392333984375 3.385597229003906 7.753011703491211 C 3.498626708984375 8.006301879882812 3.582557678222656 8.196382522583008 3.642208099365234 8.334121704101562 C 3.784896850585938 8.663583755493164 4.073574066162109 9.330272674560547 3.672397613525391 10.07135963439941 C 3.143283843994141 11.19876480102539 2.668853759765625 12.60811424255371 2.261775970458984 14.26200294494629 L 2.200046539306641 14.51280212402344 L 2.068496704101562 14.73508262634277 C 1.800315856933594 15.18820190429688 1.460994720458984 15.35754203796387 1.10174560546875 15.53682327270508 C 0.9534378051757812 15.61084175109863 0.7393264770507812 15.71589279174805 0.4653472900390625 15.84906196594238 C 0.01029586791992188 16.07023239135742 -0.6209449768066406 16.37440299987793 -1.410854339599609 16.75312232971191 C -2.0220947265625 17.04618072509766 -2.636119842529297 17.33964729309082 -3.125003814697266 17.57302856445312 L -3.125003814697266 20.95638656616211 C -2.700691223144531 21.10891914367676 -2.201873779296875 21.2884578704834 -1.703052520751953 21.46850204467773 C -0.9521217346191406 21.73955345153809 -0.3532028198242188 21.95687294006348 0.07706832885742188 22.11445236206055 C 0.3250846862792969 22.20528221130371 0.5317878723144531 22.28165245056152 0.6765174865722656 22.336181640625 C 0.9597930908203125 22.44290924072266 1.749652862548828 22.74044036865234 1.972484588623047 23.59457397460938 C 2.3475341796875 24.63360595703125 3.090938568115234 26.47882461547852 3.675205230712891 27.59424209594727 L 3.69024658203125 27.62363243103027 C 4.062408447265625 28.36796188354492 3.855525970458984 28.85508346557617 3.402256011962891 29.92237281799316 C 3.217357635498047 30.35772323608398 2.958045959472656 30.95823287963867 2.631515502929688 31.70719146728516 C 2.407722473144531 32.22050857543945 2.182079315185547 32.73535537719727 1.992290496826172 33.16742324829102 L 4.542888641357422 35.69926452636719 C 9.198331832885742 33.65487289428711 9.330022811889648 33.65507125854492 9.745016098022461 33.65507125854492 C 10.05994987487793 33.65507125854492 10.36201858520508 33.73703765869141 10.62673377990723 33.89083099365234 C 11.35025978088379 34.27690124511719 13.02359771728516 34.94859313964844 14.43040657043457 35.47966766357422 C 14.82744789123535 35.5712776184082 15.36504554748535 35.86130905151367 15.73648643493652 36.7795524597168 C 15.80279731750488 36.9434928894043 15.8904857635498 37.16941070556641 16.00455665588379 37.47023391723633 C 16.18867683410645 37.95579147338867 16.43912696838379 38.63056182861328 16.74893569946289 39.47580337524414 C 16.97475433349609 40.09186935424805 17.20016288757324 40.71140670776367 17.38420486450195 41.21875381469727 L 20.67066955566406 41.21875381469727 C 20.84794807434082 40.7564811706543 21.06177520751953 40.20040130615234 21.27609634399414 39.64664077758789 C 21.58104705810547 38.85872268676758 21.82782745361328 38.22829437255859 22.00956726074219 37.77285385131836 C 22.45078659057617 36.66721343994141 22.61587524414062 36.25351333618164 23.30719757080078 35.95548248291016 L 23.45350646972656 35.89240264892578 L 23.60880661010742 35.85678100585938 C 25.32144546508789 35.46401214599609 26.252197265625 34.96093368530273 27.58154678344727 34.17906188964844 L 27.58160018920898 34.17915344238281 C 27.85326385498047 34.01949691772461 28.16664695739746 33.93341064453125 28.48582649230957 33.93341064453125 C 28.99290657043457 33.93341064453125 29.28201675415039 34.00373077392578 31.97997665405273 35.47787094116211 C 32.44740676879883 35.73326873779297 32.91071319580078 35.9899787902832 33.30456924438477 36.20957946777344 L 36.46442031860352 33.42033004760742 C 36.25774765014648 32.96469497680664 36.0131721496582 32.42406463623047 35.77106475830078 31.88553237915039 C 35.41445541381836 31.09232330322266 35.13238525390625 30.45762252807617 34.93267822265625 29.99907302856445 C 34.80855560302734 29.71409225463867 34.71693801879883 29.49887275695801 34.6525764465332 29.34111213684082 C 34.60984802246094 29.23635292053223 34.57878494262695 29.15609359741211 34.55483627319336 29.08854293823242 C 34.38686752319336 28.61482620239258 34.41407775878906 28.1696662902832 34.56278610229492 27.79563903808594 L 34.55990600585938 27.79450225830078 C 35.36111831665039 25.76643371582031 35.40108489990234 25.58049392700195 35.62289810180664 24.54859161376953 C 35.6638069152832 24.35827255249023 35.71001815795898 24.14335250854492 35.76644515991211 23.89001274108887 L 35.84087753295898 23.55588150024414 L 36.03571701049805 23.27442169189453 C 36.39853668212891 22.75031280517578 36.5285758972168 22.68767166137695 39.5140266418457 21.5987720489502 C 40.03483581542969 21.4088134765625 40.55651473999023 21.22067832946777 40.99316787719727 21.06396675109863 L 41.19230651855469 17.22275733947754 C 40.72309875488281 17.04039001464844 40.16297149658203 16.82232284545898 39.60559844970703 16.60447311401367 C 38.79973602294922 16.28951263427734 38.15658569335938 16.03637313842773 37.69400787353516 15.85209274291992 C 37.41054534912109 15.73916244506836 37.19844818115234 15.6535530090332 37.04557800292969 15.59035301208496 C 36.69033050537109 15.4434986114502 35.96728897094727 15.14458084106445 35.76953506469727 14.26366233825684 C 35.39547729492188 12.86257553100586 34.94114685058594 12.05440711975098 34.36761474609375 11.03413200378418 C 34.30627822875977 10.92502212524414 34.24443817138672 10.81499290466309 34.18214797973633 10.70327186584473 L 33.94478607177734 10.27755165100098 L 33.96167755126953 9.790422439575195 C 33.9749870300293 9.406782150268555 34.01724624633789 9.316843032836914 34.53466796875 8.215803146362305 C 34.75187683105469 7.753572463989258 35.05413818359375 7.115322113037109 35.43304824829102 6.318782806396484 C 35.70285797119141 5.751581192016602 35.97410202026367 5.182834625244141 36.19868469238281 4.712417602539062 L 33.39834213256836 1.940055847167969 C 33.0288200378418 2.157718658447266 32.60538864135742 2.406089782714844 32.1801872253418 2.653312683105469 C 29.45138549804688 4.239902496337891 29.28561782836914 4.284980773925781 28.75393676757812 4.284980773925781 C 28.45903015136719 4.284980773925781 28.17542457580566 4.213359832763672 27.92311477661133 4.078376770019531 C 27.55582618713379 3.898250579833984 27.24924850463867 3.745471954345703 26.97732543945312 3.609962463378906 C 25.64848709106445 2.947761535644531 25.44424629211426 2.845981597900391 24.04316711425781 2.491283416748047 L 24.00195693969727 2.480312347412109 C 23.12186622619629 2.234531402587891 22.90899658203125 1.682231903076172 22.44258689880371 0.4721221923828125 C 22.24704742431641 -0.035186767578125 21.98272705078125 -0.7379074096679688 21.65693664550781 -1.616539001464844 C 21.41233253479004 -2.276226043701172 21.16874313354492 -2.938976287841797 20.97275161743164 -3.474048614501953 L 17.20051383972168 -3.474048614501953 M 16.01916694641113 -5.224048614501953 L 22.19677734375 -5.224048614501953 C 22.19677734375 -5.224048614501953 24.3741455078125 0.7672920227050781 24.47265625 0.7948036193847656 C 26.37928771972656 1.277492523193359 26.46996688842773 1.418033599853516 28.74596786499023 2.532783508300781 C 28.83890151977539 2.625617980957031 33.66943740844727 -0.2540969848632812 33.66943740844727 -0.2540969848632812 L 38.31420516967773 4.344261169433594 C 38.31420516967773 4.344261169433594 35.713134765625 9.778692245483398 35.71062469482422 9.851072311401367 C 36.37992477416992 11.05151176452637 36.99739837646484 12.05273246765137 37.47458648681641 13.86612319946289 C 37.43965530395508 13.89481353759766 43.00549697875977 16.0491828918457 43.00549697875977 16.0491828918457 L 42.68041610717773 22.31967163085938 C 42.68041610717773 22.31967163085938 37.571044921875 24.13115310668945 37.47458648681641 24.27049255371094 C 37.09495544433594 25.97482299804688 37.18749618530273 25.90625381469727 36.18749618530273 28.43750381469727 C 36.12499618530273 28.46875381469727 38.59374618530273 33.87500381469727 38.59374618530273 33.87500381469727 L 33.53124618530273 38.34375381469727 C 33.53124618530273 38.34375381469727 28.62497711181641 35.5625 28.46874618530273 35.68750381469727 C 27.0526065826416 36.52041244506836 25.93861770629883 37.11790084838867 23.99999618530273 37.56250381469727 C 23.92168617248535 37.59626388549805 21.87499618530273 42.96875381469727 21.87499618530273 42.96875381469727 L 16.15624618530273 42.96875381469727 C 16.15624618530273 42.96875381469727 14.06194305419922 37.15645980834961 13.99999618530273 37.18750381469727 C 13.24999618530273 36.90625381469727 10.78124618530273 35.96875381469727 9.749996185302734 35.40625381469727 C 9.687625885009766 35.34376525878906 4.156246185302734 37.78125381469727 4.156246185302734 37.78125381469727 L -0.09375381469726562 33.56250381469727 C -0.09375381469726562 33.56250381469727 2.156246185302734 28.46875381469727 2.124996185302734 28.40625381469727 C 1.437496185302734 27.09375381469727 0.6249961853027344 25.03125381469727 0.2812461853027344 24.06250381469727 C 0.3152847290039062 24.0472412109375 -4.875003814697266 22.18750381469727 -4.875003814697266 22.18750381469727 L -4.875003814697266 16.46875190734863 C -4.875003814697266 16.46875190734863 0.5327262878417969 13.89405250549316 0.5624961853027344 13.84375190734863 C 0.98388671875 12.1317024230957 1.499996185302734 10.56250190734863 2.124996185302734 9.250001907348633 C 2.187026977539062 9.312185287475586 -0.09375 4.312503814697266 -0.09375381469726562 4.312503814697266 L 4.156246185302734 0.1875038146972656 C 4.156242370605469 0.1875038146972656 9.62592887878418 2.642227172851562 9.749996185302734 2.500003814697266 C 10.82345581054688 1.8740234375 12.01579666137695 0.9767417907714844 13.68749618530273 0.4375038146972656 C 13.71659088134766 0.5030555725097656 16.01916694641113 -5.224048614501953 16.01916694641113 -5.224048614501953 Z" stroke="none" fill="#000"/>
    </g>
  </g>
</svg>
