<svg id="Video" xmlns="http://www.w3.org/2000/svg" width="80" height="60" viewBox="0 0 80 60">
  <g id="Rectangle_3" data-name="Rectangle 3" fill="#fff" stroke="red" stroke-width="1">
    <rect width="80" height="60" rx="20" stroke="none"/>
    <rect x="0.5" y="0.5" width="79" height="59" rx="19.5" fill="none"/>
  </g>
  <g id="Group_3" data-name="Group 3" transform="translate(-410.041 -964.25)">
    <g id="Polygon_1" data-name="Polygon 1" transform="translate(461.438 1002.5) rotate(-90)" fill="#fff">
      <path d="M 17.73946952819824 15.06947708129883 L 3.760539054870605 15.06947708129883 C 3.337309122085571 15.06947708129883 2.965999126434326 14.84639644622803 2.767269134521484 14.47273635864258 C 2.568539142608643 14.09907627105713 2.591149091720581 13.66649627685547 2.827749013900757 13.31557655334473 L 9.817209243774414 2.948756694793701 C 10.02976894378662 2.633476495742798 10.36975860595703 2.452656507492065 10.74999904632568 2.452656507492065 C 11.13023948669434 2.452656507492065 11.47022914886475 2.633476495742798 11.68278884887695 2.948756694793701 L 18.6722583770752 13.31557655334473 C 18.90884971618652 13.6664867401123 18.93145942687988 14.09907627105713 18.73272895812988 14.47273635864258 C 18.53399848937988 14.84639644622803 18.16268920898438 15.06947708129883 17.73946952819824 15.06947708129883 Z" stroke="none"/>
      <path d="M 10.74999904632568 3.327656745910645 C 10.66176891326904 3.327656745910645 10.59203910827637 3.364747047424316 10.54270935058594 3.437906265258789 L 3.553249359130859 13.80471611022949 C 3.530279159545898 13.83877658843994 3.469278335571289 13.92925643920898 3.53980827331543 14.06186676025391 C 3.61033821105957 14.19447708129883 3.719459533691406 14.19447708129883 3.760538101196289 14.19447708129883 L 17.73945999145508 14.19447708129883 C 17.78053855895996 14.19447708129883 17.88966941833496 14.19447708129883 17.96018981933594 14.06186676025391 C 18.03071975708008 13.92925643920898 17.96971893310547 13.83877658843994 17.94675827026367 13.80472660064697 L 10.95728874206543 3.437906265258789 C 10.90796947479248 3.364747047424316 10.83821868896484 3.327656745910645 10.74999904632568 3.327656745910645 M 10.74999904632568 1.577658653259277 C 11.38094139099121 1.577658653259277 12.01188373565674 1.871641159057617 12.40829944610596 2.459606170654297 L 19.39776992797852 12.82642650604248 C 20.29338836669922 14.15481662750244 19.34157943725586 15.94447708129883 17.73945999145508 15.94447708129883 L 3.760538101196289 15.94447708129883 C 2.158428192138672 15.94447708129883 1.206609725952148 14.15482711791992 2.102228164672852 12.82642650604248 L 9.09169864654541 2.459606170654297 C 9.488114356994629 1.871641159057617 10.11905670166016 1.577658653259277 10.74999904632568 1.577658653259277 Z" stroke="none" fill="red"/>
    </g>
    <g id="Rectangle_5" data-name="Rectangle 5" transform="translate(431 980)" fill="#fff" stroke="red" stroke-width="1.75">
      <path d="M0,0H31a3,3,0,0,1,3,3V21a3,3,0,0,1-3,3H3a3,3,0,0,1-3-3V0A0,0,0,0,1,0,0Z" stroke="none"/>
      <path d="M1.75.875H31A2.125,2.125,0,0,1,33.125,3V21A2.125,2.125,0,0,1,31,23.125H3A2.125,2.125,0,0,1,.875,21V1.75A.875.875,0,0,1,1.75.875Z" fill="none"/>
    </g>
    <g id="Rectangle_7" data-name="Rectangle 7" transform="translate(422.7 980)" fill="#fff" stroke="red" stroke-width="1.75">
      <rect width="10" height="8" rx="2" stroke="none"/>
      <rect x="0.875" y="0.875" width="8.25" height="6.25" rx="1.125" fill="none"/>
    </g>
    <g id="Rectangle_6" data-name="Rectangle 6" transform="translate(436 1002.5)" fill="#fff" stroke="red" stroke-width="1.75">
      <path d="M0,0H24a0,0,0,0,1,0,0V4a2,2,0,0,1-2,2H2A2,2,0,0,1,0,4V0A0,0,0,0,1,0,0Z" stroke="none"/>
      <path d="M1.75.875h20.5a.875.875,0,0,1,.875.875V4A1.125,1.125,0,0,1,22,5.125H2A1.125,1.125,0,0,1,.875,4V1.75A.875.875,0,0,1,1.75.875Z" fill="none"/>
    </g>
  </g>
  <line id="Line_16" data-name="Line 16" y1="48" x2="68" transform="translate(6.5 6.5)" fill="none" stroke="red" stroke-width="1.75"/>
</svg>
